<svg xmlns="http://www.w3.org/2000/svg" width="1200" height="760" viewBox="0 0 1200 760" role="img" aria-labelledby="title desc">
  <title id="title">Aivio Digital project screenshot</title>
  <desc id="desc">A stylized browser screenshot for Aivio Digital, highlighting Static Agency Site.</desc>
  <defs>
    <linearGradient id="bg" x1="0" y1="0" x2="1" y2="1">
      <stop offset="0" stop-color="#f8fafc"/>
      <stop offset="1" stop-color="#e2e8f0"/>
    </linearGradient>
    <linearGradient id="hero" x1="0" y1="0" x2="1" y2="1">
      <stop offset="0" stop-color="#2563eb"/>
      <stop offset="1" stop-color="#0f172a"/>
    </linearGradient>
    <filter id="shadow" x="-20%" y="-20%" width="140%" height="140%">
      <feDropShadow dx="0" dy="24" stdDeviation="28" flood-color="#0f172a" flood-opacity="0.18"/>
    </filter>
  </defs>
  <rect width="1200" height="760" fill="url(#bg)"/>
  <rect x="70" y="70" width="1060" height="620" rx="34" fill="#ffffff" filter="url(#shadow)"/>
  <rect x="70" y="70" width="1060" height="76" rx="34" fill="#f1f5f9"/>
  <rect x="70" y="112" width="1060" height="34" fill="#f1f5f9"/>
  <circle cx="112" cy="108" r="10" fill="#ef4444"/>
  <circle cx="144" cy="108" r="10" fill="#f59e0b"/>
  <circle cx="176" cy="108" r="10" fill="#22c55e"/>
  <rect x="225" y="91" width="520" height="34" rx="17" fill="#ffffff" stroke="#e2e8f0"/>
  <text x="252" y="114" font-size="16" fill="#64748b">aiviodigital.com</text>
  <rect x="90" y="166" width="1020" height="286" rx="28" fill="url(#hero)"/>
  <text x="138" y="248" font-size="28" font-weight="700" fill="#ffffff" opacity="0.78">Static Agency Site</text>
  <text x="138" y="318" font-size="58" font-weight="800" fill="#ffffff">Aivio Digital</text>
  <rect x="138" y="360" width="210" height="46" rx="23" fill="#ffffff" opacity="0.95"/>
  <text x="172" y="390" font-size="18" font-weight="700" fill="#0f172a">View project</text>
  <g opacity="0.82">
    <rect x="782" y="208" width="230" height="154" rx="18" fill="#ffffff" opacity="0.18"/>
    <rect x="812" y="238" width="130" height="16" rx="8" fill="#ffffff" opacity="0.75"/>
    <rect x="812" y="272" width="160" height="16" rx="8" fill="#ffffff" opacity="0.45"/>
    <rect x="812" y="306" width="95" height="16" rx="8" fill="#ffffff" opacity="0.45"/>
  </g>
  
      <g transform="translate(90 475)">
        <rect width="220" height="118" rx="18" fill="#ffffff" stroke="#e2e8f0"/>
        <rect x="20" y="22" width="52" height="52" rx="14" fill="#2563eb" opacity="0.14"/>
        <circle cx="46" cy="48" r="16" fill="#2563eb" opacity="0.78"/>
        <text x="20" y="94" font-size="20" font-weight="700" fill="#334155">Performance score 97</text>
      </g>
      <g transform="translate(350 475)">
        <rect width="220" height="118" rx="18" fill="#ffffff" stroke="#e2e8f0"/>
        <rect x="20" y="22" width="52" height="52" rx="14" fill="#2563eb" opacity="0.14"/>
        <circle cx="46" cy="48" r="16" fill="#2563eb" opacity="0.78"/>
        <text x="20" y="94" font-size="20" font-weight="700" fill="#334155">Markdown content</text>
      </g>
      <g transform="translate(610 475)">
        <rect width="220" height="118" rx="18" fill="#ffffff" stroke="#e2e8f0"/>
        <rect x="20" y="22" width="52" height="52" rx="14" fill="#2563eb" opacity="0.14"/>
        <circle cx="46" cy="48" r="16" fill="#2563eb" opacity="0.78"/>
        <text x="20" y="94" font-size="20" font-weight="700" fill="#334155">Zero hosting cost</text>
      </g>
  <rect x="90" y="638" width="1020" height="1" fill="#e2e8f0"/>
  <text x="90" y="664" font-size="15" fill="#94a3b8">Portfolio screenshot preview</text>
</svg>